<?xml version="1.0" encoding="UTF-8" standalone="no"?>
<!DOCTYPE svg PUBLIC "-//W3C//DTD SVG 1.1//EN" "http://www.w3.org/Graphics/SVG/1.1/DTD/svg11.dtd">
<svg width="100%" height="100%" viewBox="0 0 599 853" version="1.1" xmlns="http://www.w3.org/2000/svg" xmlns:xlink="http://www.w3.org/1999/xlink" xml:space="preserve" xmlns:serif="http://www.serif.com/" style="fill-rule:evenodd;clip-rule:evenodd;stroke-linejoin:round;stroke-miterlimit:2;">
    <g transform="matrix(1,0,0,1,1,0)">
        <rect x="0" y="0" width="597" height="591" style="fill:rgb(102,0,144);fill-rule:nonzero;"/>
    </g>
    <g transform="matrix(1,0,0,1,0,648)">
        <path d="M0,0L43,0C52.07,11.34 52.07,11.34 55.94,16.38L57.21,18.03C60.75,22.65 64.23,27.3 67.72,31.96C70.17,35.22 72.65,38.46 75.13,41.69L76.39,43.33C78.31,45.82 80.23,48.29 82.19,50.75L84.13,53.19L85.82,55.29C87,57 87,57 87,59L89,59C90.56,60.91 90.56,60.91 92.44,63.63C96.16,68.88 100.05,73.94 104.06,78.97C113,90.23 113,90.23 113,93L115,93C116.51,94.68 116.51,94.68 118.13,96.88L119.76,99.06C121,101 121,101 121,103L123,103C124.44,104.83 124.44,104.83 126,107.25L127.56,109.64C128.83,111.72 129.95,113.8 131,116L133,116L135,119L136,0L181,0L181,201L141,201C135,193 135,193 135,191L133,191C129,185.59 129,185.59 129,183L127,183C125.49,181.32 125.49,181.32 123.87,179.12L122.24,176.94C121,175 121,175 121,173L119,173C117.56,171.17 117.56,171.17 116,168.75L114.44,166.36C113.17,164.28 112.05,162.2 111,160L109,160C107.25,157.78 105.61,155.57 104,153.25L102.63,151.33C100.51,148.31 98.5,145.38 97,142L95,142C93.46,140.01 92.04,138.02 90.62,135.94C86.91,130.59 83.04,125.43 78.94,120.38C75.15,115.69 71.39,110.99 67.75,106.19L65.55,103.3C64,101 64,101 64,99L62,99C60.67,97.56 60.67,97.56 59.18,95.57L57.56,93.41L55.88,91.13L54.17,88.86C50,83.26 50,83.26 50,81L48,81L47,77L45,77L45,201L0,201L0,0Z" style="fill:rgb(101,0,143);fill-rule:nonzero;"/>
    </g>
    <g transform="matrix(1,0,0,1,421,648)">
        <path d="M0,0L46,0L46.03,11.45C46.06,23.97 46.12,36.49 46.18,49C46.22,56.59 46.25,64.17 46.27,71.76C46.28,78.38 46.31,84.99 46.35,91.61C46.37,95.11 46.39,98.61 46.39,102.11C46.39,106.03 46.42,109.95 46.45,113.87L46.43,117.33C46.57,128.38 49.06,138.26 55.72,147.2C57,149 57,149 58,152L61,153L61,155L63.06,155.81C65.11,156.64 67.13,157.54 69.12,158.5C82.02,164.01 96.69,163.03 109.54,158C118.52,153.52 123.96,146.05 127.99,137.06C130.77,128.59 131.3,120.35 131.32,111.48L131.35,107.81L131.41,97.94L131.48,87.59L131.6,68.04L131.74,45.77C131.83,30.52 131.92,15.26 132,0L177,0C177.04,16.6 177.08,33.19 177.1,49.79L177.15,72.91L177.19,93.08L177.21,103.74C177.23,107.72 177.23,111.71 177.23,115.69L177.25,119.2C177.22,129.91 175.85,140.36 172.75,150.63L172.09,152.81C166.27,171.31 152.92,186.21 135.84,195.22C121.15,202.41 104.46,204.4 88.31,204.32L84.61,204.3C60.66,203.98 39.8,198.44 22.13,181.56C4.74,163.19 -0.38,139.31 -0.23,114.66L-0.23,110.87L-0.21,100.73L-0.19,90.08L-0.15,69.98L-0.1,47.07C-0.08,31.38 -0.04,15.69 0,0Z" style="fill:rgb(101,0,143);fill-rule:nonzero;"/>
    </g>
    <g transform="matrix(1,0,0,1,203,649)">
        <path d="M0,0C7.36,-0.41 14.72,-0.69 22.1,-0.88C24.6,-0.96 27.11,-1.07 29.61,-1.21C49.81,-2.3 49.81,-2.3 55.08,1.5C58.41,5.18 60.39,9.3 62.15,13.91C63.53,17.32 65.44,20.41 67.31,23.57L69.26,27.03C70.93,29.89 72.73,32.51 74.72,35.14C76.24,37.35 77.47,39.64 78.74,42.01C81.89,47.85 85.23,53.56 88.63,59.26C92.13,65.15 95.63,71.04 99.01,77.01L101.01,77.01C102.52,74.74 103.9,72.49 105.26,70.13L106.49,68.04L110,62C113.32,56.36 116.75,50.81 120.31,45.31C123.81,39.91 127.18,34.44 130.47,28.91C134.03,22.94 137.65,17 141.28,11.08L142.62,8.9L143.8,6.98C145.09,4.94 145.09,4.94 146.26,2.41C148,0 148,0 150.34,-0.6L153.12,-0.57L156.27,-0.57L159.67,-0.49L163.15,-0.47C166.83,-0.44 170.51,-0.38 174.18,-0.31L181.65,-0.24C187.78,-0.19 193.89,-0.11 200,0C197.45,11.01 188.66,21.04 182.33,30.17C178.98,35.01 175.82,39.83 173,45C171.37,47.94 171.37,47.94 170,50L168,50L167.27,52.59C165.89,56.3 164,59.28 161.75,62.5C157.25,69.09 152.91,75.77 148.62,82.5L146.82,85.32C143.76,90.15 140.79,95 138,100L136,100L135.28,102.12C134.04,104.9 132.51,107.04 130.67,109.45C123.88,118.66 123.73,126.98 123.89,138.09L123.86,143.48C123.84,148.16 123.86,152.84 123.9,157.52C123.94,163.16 123.91,168.8 123.89,174.44C123.87,182.97 123.93,191.49 123.98,200.01L77.98,200.01L78.01,183.3L77.97,172.77C77.96,167.2 77.93,161.64 77.96,156.08C77.98,151.59 77.96,147.11 77.92,142.62C77.91,140.91 77.91,139.21 77.93,137.5C78.01,127.06 77.19,120.1 70,112C68.87,110.31 67.76,108.6 66.69,106.87L64.94,104.1L59.4,95.24C50.28,80.48 50.28,80.48 40.56,66.13C36.11,59.86 32.1,53.3 28.07,46.74C27.13,45.2 26.17,43.67 25.2,42.15C24,40 24,40 24,38L22,38C20.52,35.76 20.52,35.76 18.81,32.69C15.82,27.38 12.64,22.26 9.29,17.18C8,15 8,15 8,13L6,13L6,10L4,10C0,3.38 0,3.38 0,0Z" style="fill:rgb(102,0,143);fill-rule:nonzero;"/>
    </g>
    <g transform="matrix(1,0,0,1,311,93)">
        <path d="M0,0C3.69,3.17 5.3,6.5 6.88,11L7.64,13.1C13.61,29.96 18.32,46.83 20,64.69L20.38,68.58C19.88,73.08 18.44,74.13 15,77L11.95,79.87L8.69,82.88L6.95,84.48C3.93,87.26 0.88,89.98 -2.25,92.62C-23.53,111.18 -38.18,137.86 -40.22,166.07C-40.63,180.36 -37.62,193.71 -32.2,206.84C-31,210 -31,210 -31,213C-49.87,206.41 -67.23,187.14 -76.61,170.06C-77.89,167.41 -78.99,164.76 -80,162L-80.96,159.44C-86.9,141.13 -81.45,121.58 -73,105C-64.69,89.99 -54.31,76.26 -42.58,63.78C-38.49,59.37 -34.75,54.71 -31,50L-28.35,46.73C-16.79,32.37 -6.63,17.31 0,0Z" style="fill:rgb(252,250,252);fill-rule:nonzero;"/>
    </g>
    <g transform="matrix(1,0,0,1,420,177)">
        <path d="M0,0L2,0C0.82,34.58 -3.43,71.72 -27,99L-28.79,101.23C-45.84,121.69 -71.8,130.06 -97.44,132.79C-103.63,133.31 -109.8,133.24 -116,133C-115.59,112.99 -106.11,93.82 -93,79L-91.56,77.16C-82.57,65.83 -69.73,58.07 -56.75,52.13C-44,46.28 -32.46,39.42 -22,30L-19.42,27.7C-10.98,19.77 -5.02,10.39 0,0Z" style="fill:rgb(252,250,253);fill-rule:nonzero;"/>
    </g>
    <g transform="matrix(1,0,0,1,370,130)">
        <path d="M0,0L2,0C7.48,10.7 11.24,21.3 14,33L14.75,36.07C16.09,42.59 16.23,49.12 16.31,55.75L16.36,58.44C16.35,65.54 15.32,71.05 10.86,76.7C7.19,79.65 3.33,81.71 -0.88,83.81L-6,86.45L-11,89C-24.44,95.85 -35.96,103.63 -47,114L-48.83,115.6C-62.64,128.21 -70.2,146.78 -74.96,164.42C-75.77,167.2 -76.58,169.5 -78,172C-87.8,152.04 -90.04,129.18 -83.33,107.88C-77.67,91.43 -68.06,78.32 -56,66L-53.54,63.39C-49.14,58.81 -44.57,54.8 -39.5,51C-21.99,37.85 -9.53,19.56 0,0Z" style="fill:rgb(252,250,252);fill-rule:nonzero;"/>
    </g>
    <g transform="matrix(1,0,0,1,218,140)">
        <path d="M0,0C3,1 3,1 4.2,2.85L5.34,5.27L6.62,7.95L7.94,10.82L9.29,13.72C18.94,34.73 18.94,34.73 17,43C15.74,45.59 14.29,47.94 12.72,50.35C6.91,59.32 3.54,68.67 1,79L0.31,81.58C-4,99.64 0.46,117.75 9.5,133.62C18.5,147.91 30.78,157.7 44.6,166.95L46,168.01L46,169.01C20.91,170.51 -2.95,163.43 -22.2,147.15C-33.62,136.62 -39.33,121.86 -40.19,106.61C-40.54,85.46 -32.98,70.24 -22.32,52.58C-12.77,36.68 -2.24,18.68 0,0Z" style="fill:rgb(252,249,252);fill-rule:nonzero;"/>
    </g>
    <g transform="matrix(1,0,0,1,262,358)">
        <path d="M0,0L50,0C49.4,7.23 48.77,14.37 47.84,21.56L47.5,24.22L46.38,32.88L45.58,39.08L43.44,55.61L41.7,69.13C38.72,92.24 35.71,115.34 32.63,138.44L32.24,141.33L31.17,149.37L30.85,151.72L30.27,156C30.01,157.97 29.77,159.94 29.54,161.91C29,165 29,165 27.31,167C24.16,168.36 22.26,167.92 19,167C16.03,164.03 16.27,160.53 15.85,156.52L15.56,153.88L14.63,145.25L13.97,139.21C13.29,133.14 12.65,127.07 12,121L11.72,118.39L9.52,97.46C8.32,85.94 7.06,74.43 5.76,62.92C4.19,48.85 2.62,34.77 1.19,20.69L0.81,17.08L0.48,13.76L0.2,10.95C-0.05,7.31 0,3.65 0,0Z" style="fill:rgb(252,250,252);fill-rule:nonzero;"/>
    </g>
    <g transform="matrix(1,0,0,1,243,321)">
        <rect x="0" y="0" width="86" height="26" style="fill:rgb(248,244,250);fill-rule:nonzero;"/>
    </g>
    <g transform="matrix(1,0,0,1,319,175)">
        <path d="M0,0L2,1L-22,25L-24,24C-16.33,15.6 -8.68,7.38 0,0Z" style="fill:rgb(115,26,154);fill-rule:nonzero;"/>
    </g>
</svg>
