<?xml version="1.0" encoding="UTF-8"?>
<svg height="864" version="1.1" width="1536" xmlns="http://www.w3.org/2000/svg"><path d="M0 0 L597 0 l0 591 l-597 0 L0 0 Z" fill="#660090" transform="translate(470 5)"/>
<path d="M0 0 L43 0 c9.07 11.34 9.07 11.34 12.94 16.38 l1.27 1.65 c3.54 4.62 7.02 9.27 10.51 13.93 c2.45 3.26 4.93 6.5 7.41 9.73 l1.26 1.64 c1.92 2.49 3.84 4.96 5.8 7.42 l1.94 2.44 l1.69 2.1 C87 57 87 57 87 59 l2 0 c1.56 1.91 1.56 1.91 3.44 4.63 c3.72 5.25 7.61 10.31 11.62 15.34 C113 90.23 113 90.23 113 93 l2 0 c1.51 1.68 1.51 1.68 3.13 3.88 l1.63 2.18 C121 101 121 101 121 103 l2 0 c1.44 1.83 1.44 1.83 3 4.25 l1.56 2.39 c1.27 2.08 2.39 4.16 3.44 6.36 l2 0 l2 3 l1 -119 l45 0 l0 201 l-40 0 c-6 -8 -6 -8 -6 -10 l-2 0 c-4 -5.41 -4 -5.41 -4 -8 l-2 0 c-1.51 -1.68 -1.51 -1.68 -3.13 -3.88 l-1.63 -2.18 C121 175 121 175 121 173 l-2 0 c-1.44 -1.83 -1.44 -1.83 -3 -4.25 l-1.56 -2.39 C113.17 164.28 112.05 162.2 111 160 l-2 0 c-1.75 -2.22 -3.39 -4.43 -5 -6.75 l-1.37 -1.92 C100.51 148.31 98.5 145.38 97 142 l-2 0 c-1.54 -1.99 -2.96 -3.98 -4.38 -6.06 C86.91 130.59 83.04 125.43 78.94 120.38 c-3.79 -4.69 -7.55 -9.39 -11.19 -14.19 l-2.2 -2.89 C64 101 64 101 64 99 l-2 0 C60.67 97.56 60.67 97.56 59.18 95.57 L57.56 93.41 L55.88 91.13 L54.17 88.86 C50 83.26 50 83.26 50 81 l-2 0 L47 77 l-2 0 l0 124 l-45 0 L0 0 Z" fill="#65008F" transform="translate(469 653)"/>
<path d="M0 0 L46 0 l0.03 11.45 C46.06 23.97 46.12 36.49 46.18 49 c0.04 7.59 0.07 15.17 0.09 22.76 c0.01 6.62 0.04 13.23 0.08 19.85 c0.02 3.5 0.04 7 0.04 10.5 c-0 3.92 0.03 7.84 0.06 11.76 l-0.02 3.46 c0.14 11.05 2.63 20.93 9.29 29.87 C57 149 57 149 58 152 l3 1 l0 2 l2.06 0.81 c2.05 0.83 4.07 1.73 6.06 2.69 c12.9 5.51 27.57 4.53 40.42 -0.5 c8.98 -4.48 14.42 -11.95 18.45 -20.94 c2.78 -8.47 3.31 -16.71 3.33 -25.58 l0.03 -3.67 l0.06 -9.87 l0.07 -10.35 l0.12 -19.55 l0.14 -22.27 C131.83 30.52 131.92 15.26 132 0 l45 0 c0.04 16.6 0.08 33.19 0.1 49.79 l0.05 23.12 l0.04 20.17 l0.02 10.66 c0.02 3.98 0.02 7.97 0.02 11.95 l0.02 3.51 c-0.03 10.71 -1.4 21.16 -4.5 31.43 l-0.66 2.18 c-5.82 18.5 -19.17 33.4 -36.25 42.41 c-14.69 7.19 -31.38 9.18 -47.53 9.1 l-3.7 -0.02 C60.66 203.98 39.8 198.44 22.13 181.56 C4.74 163.19 -0.38 139.31 -0.23 114.66 l-0 -3.79 l0.02 -10.14 l0.02 -10.65 l0.04 -20.1 L-0.1 47.07 C-0.08 31.38 -0.04 15.69 0 0 Z" fill="#65008F" transform="translate(890 653)"/>
<path d="M0 0 C7.36 -0.41 14.72 -0.69 22.1 -0.88 c2.5 -0.08 5.01 -0.19 7.51 -0.33 C49.81 -2.3 49.81 -2.3 55.08 1.5 c3.33 3.68 5.31 7.8 7.07 12.41 c1.38 3.41 3.29 6.5 5.16 9.66 l1.95 3.46 c1.67 2.86 3.47 5.48 5.46 8.11 c1.52 2.21 2.75 4.5 4.02 6.87 c3.15 5.84 6.49 11.55 9.89 17.25 c3.5 5.89 7 11.78 10.38 17.75 l2 0 c1.51 -2.27 2.89 -4.52 4.25 -6.88 l1.23 -2.09 L110 62 c3.32 -5.64 6.75 -11.19 10.31 -16.69 c3.5 -5.4 6.87 -10.87 10.16 -16.4 c3.56 -5.97 7.18 -11.91 10.81 -17.83 L142.62 8.9 l1.18 -1.92 c1.29 -2.04 1.29 -2.04 2.46 -4.57 C148 0 148 0 150.34 -0.6 l2.78 0.03 l3.15 0 l3.4 0.08 l3.48 0.02 c3.68 0.03 7.36 0.09 11.03 0.16 l7.47 0.07 C187.78 -0.19 193.89 -0.11 200 0 c-2.55 11.01 -11.34 21.04 -17.67 30.17 C178.98 35.01 175.82 39.83 173 45 c-1.63 2.94 -1.63 2.94 -3 5 l-2 0 l-0.73 2.59 c-1.38 3.71 -3.27 6.69 -5.52 9.91 c-4.5 6.59 -8.84 13.27 -13.13 20 l-1.8 2.82 C143.76 90.15 140.79 95 138 100 l-2 0 l-0.72 2.12 c-1.24 2.78 -2.77 4.92 -4.61 7.33 c-6.79 9.21 -6.94 17.53 -6.78 28.64 l-0.03 5.39 c-0.02 4.68 0 9.36 0.04 14.04 c0.04 5.64 0.01 11.28 -0.01 16.92 c-0.02 8.53 0.04 17.05 0.09 25.57 l-46 0 l0.03 -16.71 l-0.04 -10.53 C77.96 167.2 77.93 161.64 77.96 156.08 c0.02 -4.49 0 -8.97 -0.04 -13.46 c-0.01 -1.71 -0.01 -3.41 0.01 -5.12 C78.01 127.06 77.19 120.1 70 112 c-1.13 -1.69 -2.24 -3.4 -3.31 -5.13 l-1.75 -2.77 L59.4 95.24 C50.28 80.48 50.28 80.48 40.56 66.13 C36.11 59.86 32.1 53.3 28.07 46.74 C27.13 45.2 26.17 43.67 25.2 42.15 C24 40 24 40 24 38 l-2 0 C20.52 35.76 20.52 35.76 18.81 32.69 C15.82 27.38 12.64 22.26 9.29 17.18 C8 15 8 15 8 13 L6 13 L6 10 L4 10 C0 3.38 0 3.38 0 0 Z" fill="#66008F" transform="translate(672 654)"/>
<path d="M0 0 C3.69 3.17 5.3 6.5 6.88 11 l0.76 2.1 C13.61 29.96 18.32 46.83 20 64.69 l0.38 3.89 C19.88 73.08 18.44 74.13 15 77 l-3.05 2.87 l-3.26 3.01 L6.95 84.48 c-3.02 2.78 -6.07 5.5 -9.2 8.14 c-21.28 18.56 -35.93 45.24 -37.97 73.45 c-0.41 14.29 2.6 27.64 8.02 40.77 C-31 210 -31 210 -31 213 c-18.87 -6.59 -36.23 -25.86 -45.61 -42.94 c-1.28 -2.65 -2.38 -5.3 -3.39 -8.06 l-0.96 -2.56 C-86.9 141.13 -81.45 121.58 -73 105 c8.31 -15.01 18.69 -28.74 30.42 -41.22 C-38.49 59.37 -34.75 54.71 -31 50 l2.65 -3.27 C-16.79 32.37 -6.63 17.31 0 0 Z" fill="#FCFAFC" transform="translate(780 98)"/>
<path d="M0 0 L2 0 C0.82 34.58 -3.43 71.72 -27 99 l-1.79 2.23 c-17.05 20.46 -43.01 28.83 -68.65 31.56 c-6.19 0.52 -12.36 0.45 -18.56 0.21 c0.41 -20.01 9.89 -39.18 23 -54 l1.44 -1.84 c8.99 -11.33 21.83 -19.09 34.81 -25.03 C-44 46.28 -32.46 39.42 -22 30 l2.58 -2.3 C-10.98 19.77 -5.02 10.39 0 0 Z" fill="#FCFAFD" transform="translate(889 182)"/>
<path d="M0 0 L2 0 c5.48 10.7 9.24 21.3 12 33 l0.75 3.07 c1.34 6.52 1.48 13.05 1.56 19.68 l0.05 2.69 c-0.01 7.1 -1.04 12.61 -5.5 18.26 C7.19 79.65 3.33 81.71 -0.88 83.81 l-5.12 2.64 L-11 89 c-13.44 6.85 -24.96 14.63 -36 25 l-1.83 1.6 c-13.81 12.61 -21.37 31.18 -26.13 48.82 c-0.81 2.78 -1.62 5.08 -3.04 7.58 c-9.8 -19.96 -12.04 -42.82 -5.33 -64.12 C-77.67 91.43 -68.06 78.32 -56 66 l2.46 -2.61 c4.4 -4.58 8.97 -8.59 14.04 -12.39 C-21.99 37.85 -9.53 19.56 0 0 Z" fill="#FCFAFC" transform="translate(839 135)"/>
<path d="M0 0 C3 1 3 1 4.2 2.85 l1.14 2.42 L6.62 7.95 l1.32 2.87 l1.35 2.9 C18.94 34.73 18.94 34.73 17 43 c-1.26 2.59 -2.71 4.94 -4.28 7.35 C6.91 59.32 3.54 68.67 1 79 L0.31 81.58 C-4 99.64 0.46 117.75 9.5 133.62 c9 14.29 21.28 24.08 35.1 33.33 l1.4 1.06 l0 1 c-25.09 1.5 -48.95 -5.58 -68.2 -21.86 C-33.62 136.62 -39.33 121.86 -40.19 106.61 c-0.35 -21.15 7.21 -36.37 17.87 -54.03 C-12.77 36.68 -2.24 18.68 0 0 Z" fill="#FCF9FC" transform="translate(687 145)"/>
<path d="M0 0 L50 0 C49.4 7.23 48.77 14.37 47.84 21.56 l-0.34 2.66 l-1.12 8.66 l-0.8 6.2 L43.44 55.61 l-1.74 13.52 c-2.98 23.11 -5.99 46.21 -9.07 69.31 l-0.39 2.89 l-1.07 8.04 l-0.32 2.35 l-0.58 4.28 c-0.26 1.97 -0.5 3.94 -0.73 5.91 C29 165 29 165 27.31 167 c-3.15 1.36 -5.05 0.92 -8.31 0 c-2.97 -2.97 -2.73 -6.47 -3.15 -10.48 l-0.29 -2.64 L14.63 145.25 l-0.66 -6.04 C13.29 133.14 12.65 127.07 12 121 l-0.28 -2.61 L9.52 97.46 C8.32 85.94 7.06 74.43 5.76 62.92 C4.19 48.85 2.62 34.77 1.19 20.69 L0.81 17.08 L0.48 13.76 L0.2 10.95 C-0.05 7.31 0 3.65 0 0 Z" fill="#FCFAFC" transform="translate(731 363)"/>
<path d="M0 0 L86 0 l0 26 L0 26 L0 0 Z" fill="#F8F4FA" transform="translate(712 326)"/>
<path d="M0 0 L2 1 L-22 25 l-2 -1 C-16.33 15.6 -8.68 7.38 0 0 Z" fill="#731A9A" transform="translate(788 180)"/>
</svg>
